<?xml version="1.0" standalone="no"?>
<!DOCTYPE svg PUBLIC "-//W3C//DTD SVG 20010904//EN"
 "http://www.w3.org/TR/2001/REC-SVG-20010904/DTD/svg10.dtd">
<svg version="1.0" xmlns="http://www.w3.org/2000/svg"
 width="256.000000pt" height="256.000000pt" viewBox="0 0 256.000000 256.000000"
 preserveAspectRatio="xMidYMid meet">
<metadata>
Created by potrace 1.14, written by Peter Selinger 2001-2017
</metadata>
<g transform="translate(0.000000,256.000000) scale(0.100000,-0.100000)"
fill="#000000" stroke="none">
<path d="M524 2371 c-45 -20 -78 -60 -90 -106 -4 -17 -7 -464 -7 -996 l0 -966
24 -43 c16 -29 39 -51 67 -66 43 -23 47 -23 458 -24 l414 0 21 46 c40 84 111
150 218 201 53 26 98 48 100 49 2 2 -5 16 -15 31 -11 15 -23 35 -29 44 -5 9
-18 28 -29 43 -29 41 -45 96 -46 158 0 31 -5 69 -11 85 -16 41 -14 160 4 219
55 187 201 298 415 318 23 2 58 0 77 -4 29 -7 35 -5 36 9 1 22 1 348 0 387 -1
27 -39 69 -276 307 -152 152 -289 287 -306 301 l-31 26 -476 0 c-444 0 -480
-2 -518 -19z m1206 -423 c205 -206 234 -238 211 -239 -14 0 -116 -1 -227 -1
-217 -1 -244 5 -258 55 -3 12 -6 121 -6 241 l0 219 22 -19 c11 -10 128 -126
258 -256z"/>
<path d="M2005 1192 c-123 -11 -226 -103 -241 -213 -3 -24 -7 -46 -7 -49 -4
-17 16 -96 28 -113 11 -15 12 -24 3 -34 -15 -19 -3 -91 20 -116 10 -12 30 -42
44 -67 15 -25 38 -56 52 -69 21 -20 26 -34 26 -73 0 -91 -21 -110 -195 -180
-131 -53 -182 -117 -197 -248 l-3 -25 513 -3 513 -2 -5 48 c-13 119 -72 185
-211 237 -151 57 -175 80 -175 163 0 46 5 59 41 104 22 28 47 65 55 82 8 17
24 47 34 66 12 21 17 44 14 60 -8 33 -7 45 7 114 27 126 -38 256 -129 256 -10
0 -27 9 -37 20 -28 31 -88 48 -150 42z"/>
</g>
</svg>
